<svg width="24" height="24" viewBox="0 0 24 24" fill="none" xmlns="http://www.w3.org/2000/svg">
<path d="M9 4.5C9.39782 4.5 9.77924 4.65815 10.0605 4.93945C10.3419 5.22076 10.5 5.60218 10.5 6V18C10.5 18.3978 10.3419 18.7792 10.0605 19.0605C9.77924 19.3419 9.39782 19.5 9 19.5H6C5.60218 19.5 5.22076 19.3419 4.93945 19.0605C4.65815 18.7792 4.5 18.3978 4.5 18V6C4.5 5.60218 4.65815 5.22076 4.93945 4.93945C5.22076 4.65815 5.60218 4.5 6 4.5H9ZM18 4.5C18.3978 4.5 18.7792 4.65815 19.0605 4.93945C19.3419 5.22076 19.5 5.60218 19.5 6V18C19.5 18.3978 19.3419 18.7792 19.0605 19.0605C18.7792 19.3419 18.3978 19.5 18 19.5H15C14.6022 19.5 14.2208 19.3419 13.9395 19.0605C13.6581 18.7792 13.5 18.3978 13.5 18V6C13.5 5.60218 13.6581 5.22076 13.9395 4.93945C14.2208 4.65815 14.6022 4.5 15 4.5H18ZM6 6V18H9V6H6ZM15 6V18H18V6H15Z" fill="black"/>
</svg>
